<svg height="1498" viewBox="0 0 3300 1498" width="3300" xmlns="http://www.w3.org/2000/svg" xmlns:xlink="http://www.w3.org/1999/xlink"><mask id="a" fill="#fff"><path d="m0 1498h3300v-1498h-3300z" fill="#fff" fill-rule="evenodd"/></mask><g fill="none" fill-rule="evenodd" mask="url(#a)"><g transform="matrix(0 1 -1 0 1376 1149)"><circle cx="193.824" cy="97.056" fill="#60e7ff" r="97.056"/><circle cx="97.056" cy="97.056" fill="#7933ff" r="97.056"/><path d="m145.441584 12.9021428c29.088625 16.7610752 48.670416 48.17068 48.670416 84.1538572 0 35.983177-19.581791 67.392782-48.670416 84.153857-29.091346-16.760357-48.673584-48.170269-48.673584-84.153857 0-35.9137076 19.506254-67.2714854 48.502045-84.056616z" fill="#06bdfc"/></g><g transform="matrix(0 1 -1 0 1100 570)"><circle cx="193.824" cy="97.056" fill="#60e7ff" r="97.056"/><circle cx="97.056" cy="97.056" fill="#7933ff" r="97.056"/><path d="m145.441584 12.9021428c29.088625 16.7610752 48.670416 48.17068 48.670416 84.1538572 0 35.983177-19.581791 67.392782-48.670416 84.153857-29.091346-16.760357-48.673584-48.170269-48.673584-84.153857 0-35.9137076 19.506254-67.2714854 48.502045-84.056616z" fill="#06bdfc"/></g><g transform="matrix(0 1 -1 0 2827 247)"><circle cx="193.824" cy="97.056" fill="#60e7ff" r="97.056"/><circle cx="97.056" cy="97.056" fill="#7933ff" r="97.056"/><path d="m145.441584 12.9021428c29.088625 16.7610752 48.670416 48.17068 48.670416 84.1538572 0 35.983177-19.581791 67.392782-48.670416 84.153857-29.091346-16.760357-48.673584-48.170269-48.673584-84.153857 0-35.9137076 19.506254-67.2714854 48.502045-84.056616z" fill="#06bdfc"/></g><g transform="translate(2316 678)"><circle cx="193.824" cy="97.056" fill="#60e7ff" r="97.056"/><circle cx="97.056" cy="97.056" fill="#7933ff" r="97.056"/><path d="m145.441584 12.9021428c29.088625 16.7610752 48.670416 48.17068 48.670416 84.1538572 0 35.983177-19.581791 67.392782-48.670416 84.153857-29.091346-16.760357-48.673584-48.170269-48.673584-84.153857 0-35.9137076 19.506254-67.2714854 48.502045-84.056616z" fill="#06bdfc"/></g><g transform="translate(1181 132)"><circle cx="193.824" cy="97.056" fill="#60e7ff" r="97.056"/><circle cx="97.056" cy="97.056" fill="#7933ff" r="97.056"/><path d="m145.441584 12.9021428c29.088625 16.7610752 48.670416 48.17068 48.670416 84.1538572 0 35.983177-19.581791 67.392782-48.670416 84.153857-29.091346-16.760357-48.673584-48.170269-48.673584-84.153857 0-35.9137076 19.506254-67.2714854 48.502045-84.056616z" fill="#06bdfc"/></g><g transform="matrix(0 -1 1 0 2044 1294)"><circle cx="193.824" cy="97.056" fill="#60e7ff" r="97.056"/><circle cx="97.056" cy="97.056" fill="#7933ff" r="97.056"/><path d="m145.441584 12.9021428c29.088625 16.7610752 48.670416 48.17068 48.670416 84.1538572 0 35.983177-19.581791 67.392782-48.670416 84.153857-29.091346-16.760357-48.673584-48.170269-48.673584-84.153857 0-35.9137076 19.506254-67.2714854 48.502045-84.056616z" fill="#06bdfc"/></g><g transform="matrix(0 -1 1 0 556 472)"><circle cx="193.824" cy="97.056" fill="#60e7ff" r="97.056"/><circle cx="97.056" cy="97.056" fill="#7933ff" r="97.056"/><path d="m145.441584 12.9021428c29.088625 16.7610752 48.670416 48.17068 48.670416 84.1538572 0 35.983177-19.581791 67.392782-48.670416 84.153857-29.091346-16.760357-48.673584-48.170269-48.673584-84.153857 0-35.9137076 19.506254-67.2714854 48.502045-84.056616z" fill="#06bdfc"/></g><g transform="matrix(0 1 -1 0 2141 0)"><circle cx="193.824" cy="97.056" fill="#60e7ff" r="97.056"/><circle cx="97.056" cy="97.056" fill="#7933ff" r="97.056"/><path d="m145.441584 12.9021428c29.088625 16.7610752 48.670416 48.17068 48.670416 84.1538572 0 35.983177-19.581791 67.392782-48.670416 84.153857-29.091346-16.760357-48.673584-48.170269-48.673584-84.153857 0-35.9137076 19.506254-67.2714854 48.502045-84.056616z" fill="#06bdfc"/></g><g transform="translate(460 1063)"><circle cx="193.824" cy="97.056" fill="#60e7ff" r="97.056"/><circle cx="97.056" cy="97.056" fill="#7933ff" r="97.056"/><path d="m145.441584 12.9021428c29.088625 16.7610752 48.670416 48.17068 48.670416 84.1538572 0 35.983177-19.581791 67.392782-48.670416 84.153857-29.091346-16.760357-48.673584-48.170269-48.673584-84.153857 0-35.9137076 19.506254-67.2714854 48.502045-84.056616z" fill="#06bdfc"/></g></g></svg>